<?xml version="1.0" standalone="no"?>
<!DOCTYPE svg PUBLIC "-//W3C//DTD SVG 20010904//EN"
 "http://www.w3.org/TR/2001/REC-SVG-20010904/DTD/svg10.dtd">
<svg version="1.0" xmlns="http://www.w3.org/2000/svg"
 width="700.000000pt" height="700.000000pt" viewBox="0 0 700.000000 700.000000"
 preserveAspectRatio="xMidYMid meet">
<metadata>
Created by potrace 1.11, written by Peter Selinger 2001-2013
</metadata>
<g transform="translate(0.000000,700.000000) scale(0.100000,-0.100000)"
fill="#000000" stroke="none">
<path d="M3501 3503 c-1 -1921 1 -3493 4 -3493 9 0 768 499 810 533 5 4 165
111 355 237 190 126 352 234 360 240 8 6 116 77 240 160 124 82 230 152 235
157 6 4 116 78 245 163 129 85 237 157 240 160 3 3 33 23 68 45 l64 40 434
868 c239 477 432 867 429 867 -3 0 -781 -776 -1730 -1725 -949 -949 -1727
-1725 -1730 -1725 -3 0 384 583 859 1296 l865 1297 -21 56 c-11 31 -26 70 -33
86 -7 17 -388 966 -845 2110 -458 1144 -836 2089 -840 2100 -5 11 -9 -1552 -9
-3472z"/>
<path d="M1745 1755 c954 -954 1738 -1735 1742 -1735 5 0 4 4 -2 8 -5 4 -398
590 -872 1302 l-863 1295 -865 433 c-476 237 -867 432 -870 432 -3 0 776 -781
1730 -1735z"/>
</g>
</svg>
