<svg fill="#fff" xmlns="http://www.w3.org/2000/svg" width="24" height="24" viewBox="0 0 24 24"><path d="M21.668 0v4.832c-3.211-.043-4.8 2.02-6.038 4.727h3.623v4.854c-1.291 0-2.578.109-3.838-.029-1.356-.15-2.006.326-2.467 1.61-.886 2.472-2.301 4.632-4.495 6.184-1.824 1.29-3.884 1.794-6.14 1.822v-4.791c.322-.034.646-.058.966-.105 1.73-.26 3.086-1.147 3.948-2.641.732-1.268 1.332-2.618 1.922-3.962.876-1.996 1.606-4.061 2.555-6.021 1.358-2.811 3.376-5.016 6.483-5.911 1.125-.324 2.33-.374 3.499-.549L21.668 0z"/></svg>