<svg xmlns="http://www.w3.org/2000/svg" width="700" height="700"><style>@media (prefers-color-scheme:dark){g{fill:#fff}}</style><path d="M350.1 349.7c-.1 192.1.1 349.3.4 349.3.9 0 76.8-49.9 81-53.3.5-.4 16.5-11.1 35.5-23.7s35.2-23.4 36-24c.8-.6 11.6-7.7 24-16 12.4-8.2 23-15.2 23.5-15.7.6-.4 11.6-7.8 24.5-16.3s23.7-15.7 24-16c.3-.3 3.3-2.3 6.8-4.5l6.4-4 43.4-86.8c23.9-47.7 43.2-86.7 42.9-86.7-.3 0-78.1 77.6-173 172.5S352.8 697 352.5 697c-.3 0 38.4-58.3 85.9-129.6l86.5-129.7-2.1-5.6c-1.1-3.1-2.6-7-3.3-8.6-.7-1.7-38.8-96.6-84.5-211-45.8-114.4-83.6-208.9-84-210-.5-1.1-.9 155.2-.9 347.2zM174.5 524.5C269.9 619.9 348.3 698 348.7 698c.5 0 .4-.4-.2-.8-.5-.4-39.8-59-87.2-130.2L175 437.5l-86.5-43.3C40.9 370.5 1.8 351 1.5 351c-.3 0 77.6 78.1 173 173.5z"/></svg>