<svg fill="white" xmlns="http://www.w3.org/2000/svg" width="24" height="24" viewBox="0 0 24 24"><path d="M21.668,0c0,1.586,0,3.171,0,4.832c-3.211-0.043-4.8,2.02-6.038,4.727c1.252,0,2.417,0,3.623,0c0,1.645,0,3.2,0,4.854c-1.291,0-2.578,0.109-3.838-0.029c-1.356-0.15-2.006,0.326-2.467,1.61c-0.886,2.472-2.301,4.632-4.495,6.184C6.629,23.468,4.569,23.972,2.313,24c0-1.615,0-3.172,0-4.791c0.322-0.034,0.646-0.058,0.966-0.105c1.73-0.26,3.086-1.147,3.948-2.641c0.732-1.268,1.332-2.618,1.922-3.962c0.876-1.996,1.606-4.061,2.555-6.021c1.358-2.811,3.376-5.016,6.483-5.911c1.125-0.324,2.33-0.374,3.499-0.549 C21.686,0.019,21.668,0,21.668,0z"/></svg>
